/vscmnt/brussel_pixiu_data/_data_brussel/112/vsc11236/PredSimResults/SUBJ07opt3D/weighted-expIG/worker_02.mot
version=1
nRows=6
nColumns=50
inDegrees=yes
endheader
                time	         pelvis_tilt	         pelvis_list	     pelvis_rotation	           pelvis_tx	           pelvis_ty	           pelvis_tz	       hip_flexion_r	     hip_adduction_r	      hip_rotation_r	        knee_angle_r	       ankle_angle_r	         mtp_angle_r	       hip_flexion_l	     hip_adduction_l	      hip_rotation_l	        knee_angle_l	       ankle_angle_l	         mtp_angle_l	    lumbar_extension	      lumbar_bending	     lumbar_rotation	 ercspn_r/activation	 intobl_r/activation	 extobl_r/activation	    abd_r/activation	    add_r/activation	hamstrings_r/activation	bifemsh_r/activation	glut_max_r/activation	iliopsoas_r/activation	rect_fem_r/activation	  vasti_r/activation	gastroc_r/activation	 soleus_r/activation	tib_ant_r/activation	 ercspn_l/activation	 intobl_l/activation	 extobl_l/activation	    abd_l/activation	    add_l/activation	hamstrings_l/activation	bifemsh_l/activation	glut_max_l/activation	iliopsoas_l/activation	rect_fem_l/activation	  vasti_l/activation	gastroc_l/activation	 soleus_l/activation	tib_ant_l/activation	
          0.00000000	         -4.34085029	         -0.30102796	          9.12354932	          0.00000000	          0.84614527	         -0.01304450	         31.17330222	         -2.57526348	         -5.66079551	         -8.00730806	          2.96815851	          0.28092286	        -15.10341004	         -0.33388101	          4.92390839	         -8.81062016	          7.48697650	         29.60238964	        -12.12673113	         -1.12772751	         -1.79878352	          0.12591034	          0.12995231	          0.01000001	          0.01445517	          0.17677078	          0.09280065	          0.12228372	          0.10513264	          0.04389474	          0.01000005	          0.01000000	          0.01000000	          0.01000000	          0.43345878	          0.11773793	          0.00999999	          0.00999999	          0.03122458	          0.05264755	          0.01825307	          0.16618469	          0.01929818	          0.38291790	          0.01178633	          0.01115751	          0.16556757	          0.31247171	          0.01736349	
          0.01071808	         -4.32684241	         -0.26368539	          9.18130357	          0.01646682	          0.84441796	         -0.01264577	         31.10505976	         -2.37898436	         -5.30565894	         -9.86452717	          2.58899350	          0.25754620	        -15.59698862	         -0.43955387	          4.62411901	         -9.91413814	          6.49803099	         31.19062174	        -11.97726063	         -0.77515019	         -1.98524457	          0.10682729	          0.13149057	          0.00999999	          0.01226433	          0.16282869	          0.08067808	          0.10839020	          0.16751068	          0.03724202	          0.01000000	          0.00999999	          0.01389179	          0.01178634	          0.47932140	          0.14080462	          0.00999999	          0.01000000	          0.02649216	          0.08233451	          0.01548684	          0.14099769	          0.01637333	          0.35756639	          0.01000001	          0.00999999	          0.14047404	          0.29142866	          0.01473186	
          0.02143616	         -4.30794263	         -0.21572649	          9.18384287	          0.03304415	          0.84290539	         -0.01218149	         30.90607990	         -2.22347735	         -4.93798110	        -11.53345121	          2.15670070	          0.24852370	        -15.88224717	         -0.50785083	          4.27156253	        -11.41330374	          5.41685833	         32.71829629	        -11.83118899	         -0.42962057	         -2.15869523	          0.13729682	          0.11156177	          0.00999999	          0.09436328	          0.17772157	          0.07072833	          0.10080329	          0.17654012	          0.03159760	          0.00999999	          0.00999999	          0.01178634	          0.00999999	          0.56221929	          0.16279225	          0.00999999	          0.01000000	          0.02247699	          0.07397792	          0.01314139	          0.11962803	          0.01389178	          0.31911194	          0.01000002	          0.00999999	          0.11918370	          0.26845770	          0.01249909	
          0.03215424	         -4.28582558	         -0.14787510	          9.13311436	          0.04954294	          0.84175884	         -0.01162849	         30.66120335	         -2.08189094	         -4.64129908	        -13.10460775	          1.70352309	          0.22609551	        -15.90077336	         -0.53088848	          3.87673614	        -13.37314354	          4.20614414	         34.11453714	        -11.70806482	         -0.10326969	         -2.31758638	          0.15480005	          0.09465340	          0.00999999	          0.15000992	          0.19032691	          0.06000872	          0.08552548	          0.20917656	          0.02680864	          0.01000000	          0.00999999	          0.01000000	          0.00999999	          0.58745536	          0.20057760	          0.00999999	          0.01000000	          0.01907037	          0.07363281	          0.01495756	          0.10149722	          0.01178633	          0.27074713	          0.01000001	          0.00999999	          0.10112013	          0.23208990	          0.01060472	
          0.04287232	         -4.26084090	         -0.06960398	          9.03464460	          0.06579673	          0.84112633	         -0.01099940	         30.45701032	         -1.94856352	         -4.40236572	        -14.77288379	          1.54084253	          0.20134371	        -15.59926504	         -0.51988725	          3.44971943	        -15.85443891	          2.87553464	         35.19803045	        -11.61861489	          0.21467152	         -2.45879284	          0.16371457	          0.08030766	          0.00999999	          0.19328981	          0.20978892	          0.05091382	          0.07256319	          0.23535409	          0.02274551	          0.01000000	          0.02862891	          0.01000000	          0.00999999	          0.57832614	          0.24478009	          0.00999999	          0.01000000	          0.01618005	          0.09043132	          0.01600067	          0.08899408	          0.00999999	          0.22971252	          0.01000000	          0.00999999	          0.08579430	          0.19691420	          0.00999999	
          0.05359040	         -4.23430749	          0.01360151	          8.89025775	          0.08168072	          0.84114798	         -0.01030784	         30.30799345	         -1.82052254	         -4.21760905	        -16.54701437	          1.72501484	          0.17906923	        -14.92830130	         -0.48159137	          2.99415445	        -18.91189495	          1.43663713	         35.72662179	        -11.56785714	          0.52796799	         -2.57943135	          0.17471408	          0.06813618	          0.00999999	          0.21308207	          0.23083966	          0.04540694	          0.06156546	          0.24512340	          0.01929818	          0.01000000	          0.05785406	          0.01000000	          0.00999999	          0.53205856	          0.27165554	          0.00999999	          0.01000000	          0.01372779	          0.12148414	          0.01726644	          0.07550623	          0.00999999	          0.19489713	          0.01000000	          0.00999999	          0.07279125	          0.16706975	          0.00999999	
